<?xml version="1.0" encoding="UTF-8" standalone="no"?><!DOCTYPE svg PUBLIC "-//W3C//DTD SVG 1.1//EN" "http://www.w3.org/Graphics/SVG/1.1/DTD/svg11.dtd"><svg width="100%" height="100%" viewBox="0 0 116 20" version="1.1" xmlns="http://www.w3.org/2000/svg" xmlns:xlink="http://www.w3.org/1999/xlink" xml:space="preserve" xmlns:serif="http://www.serif.com/" style="fill-rule:evenodd;clip-rule:evenodd;stroke-linejoin:round;stroke-miterlimit:2;"><g opacity="0.3"><path d="M28.471,4.86c-0.143,-1.07 -1.695,-1.863 -2.304,-0.624c-0.973,1.98 -1.889,3.986 -2.752,6.015c0.003,-0.036 0.007,-0.073 0.01,-0.109l0.685,-7.057c0.118,-1.213 -1.779,-1.696 -2.304,-0.624c-1.314,2.685 -2.217,5.571 -3.34,8.346c0.304,-2.833 0.513,-5.673 0.497,-8.528c-0.007,-1.186 -1.722,-1.738 -2.305,-0.624c-0.002,0.005 -0.005,0.011 -0.008,0.016c-0.315,-0.929 -1.765,-1.409 -2.231,-0.308c-1.204,2.843 -2.658,5.556 -4.216,8.213c0.507,-2.615 1.015,-5.231 1.521,-7.846c0.218,-1.119 -1.178,-2.197 -2.066,-1.203c-0.865,0.967 -1.677,1.971 -2.438,3.01c0.004,-0.01 0.008,-0.019 0.013,-0.029c0.654,-1.451 -1.2,-2.552 -2.136,-1.248c-1.623,2.262 -3.245,4.524 -4.868,6.786c-0.87,1.212 0.953,2.373 1.945,1.464c-0.201,1.068 -0.319,2.154 -0.305,3.267c0.018,1.45 1.961,1.606 2.429,0.328c1.023,-2.789 2.387,-5.436 4.044,-7.89c-0.613,3.164 -1.226,6.328 -1.84,9.493c-0.262,1.351 1.487,2.182 2.26,0.952c1.15,-1.828 2.295,-3.662 3.393,-5.522c-0.394,1.943 -0.769,3.89 -1.109,5.845c-0.269,1.545 1.909,2.205 2.385,0.657c0.881,-2.87 1.724,-5.77 2.737,-8.602c-0.24,2.643 -0.584,5.278 -0.942,7.909c-0.189,1.391 1.393,2.125 2.26,0.953c1.452,-1.963 2.451,-4.147 3.333,-6.389c-0.001,0.014 -0.003,0.028 -0.004,0.042c-0.13,1.344 -0.267,2.688 -0.391,4.032c-0.1,1.076 -0.001,2.027 0.974,2.66c0.715,0.464 1.561,-0.027 1.816,-0.739c0.853,-2.382 1.792,-4.729 2.798,-7.047c-0.072,0.757 -0.161,1.512 -0.262,2.268c-0.088,0.667 0.632,1.23 1.237,1.236c0.741,0.008 1.149,-0.577 1.237,-1.236c0.347,-2.616 0.598,-5.237 0.247,-7.867" style="fill:#ff7271;fill-rule:nonzero;"/></g><g opacity="0.3"><path d="M114.736,5.419c-0.186,-1.014 -1.818,-1.235 -2.26,-0.295c-0.767,1.63 -1.21,3.403 -1.69,5.157c0.093,-2.254 0.215,-4.508 0.369,-6.76c0.096,-1.412 -2.066,-1.649 -2.429,-0.328c-0.753,2.734 -1.514,5.475 -2.428,8.16c0.106,-3.382 0.213,-6.763 0.319,-10.145c0.044,-1.387 -2.1,-1.689 -2.429,-0.329l-2.029,8.384c-0.043,0.179 -0.086,0.358 -0.13,0.537c-0.063,-2.831 -0.073,-5.663 -0.022,-8.496c0.024,-1.365 -2.149,-1.719 -2.429,-0.329l-1.135,5.629c-0.01,-1.59 -0.02,-3.179 -0.03,-4.768c-0.009,-1.445 -1.972,-1.613 -2.429,-0.328c-0.732,2.057 -1.465,4.114 -2.197,6.172c0.109,-1.31 0.217,-2.62 0.325,-3.929c0.122,-1.468 -1.989,-1.567 -2.429,-0.329c-0.338,0.953 -0.68,1.905 -1.035,2.851c0.002,-0.008 0.003,-0.016 0.005,-0.023c0.292,-1.556 -2.091,-2.223 -2.385,-0.658c-0.294,1.561 -0.587,3.123 -0.881,4.684c-0.272,1.447 -0.568,2.832 -0.234,4.294c0.242,1.057 1.736,1.181 2.26,0.295c0.566,-0.958 1.076,-1.944 1.55,-2.946c-0.14,1.694 -0.28,3.387 -0.42,5.081c-0.121,1.468 1.989,1.566 2.429,0.329c1.004,-2.821 2.008,-5.643 3.012,-8.464c0.021,3.247 0.042,6.494 0.062,9.741c0.009,1.353 2.146,1.733 2.429,0.329c0.393,-1.951 0.786,-3.901 1.179,-5.851c0.056,1.48 0.124,2.959 0.211,4.438c0.076,1.297 1.576,1.588 2.305,0.624c0.727,-0.962 0.917,-2.207 1.194,-3.352c0.135,-0.557 0.27,-1.114 0.405,-1.671c-0.053,1.683 -0.106,3.366 -0.159,5.049c-0.037,1.189 1.757,1.734 2.304,0.624c0.884,-1.792 1.64,-3.632 2.315,-5.501c-0.035,1.183 -0.083,2.366 -0.1,3.55c-0.019,1.323 1.626,1.554 2.304,0.624c1.048,-1.435 1.653,-3.041 2.144,-4.695c-0.001,1.434 2.317,1.38 2.474,-0.14c0.249,-2.421 0.123,-4.823 -0.315,-7.215" style="fill:#ff7271;fill-rule:nonzero;"/></g></svg>