<?xml version="1.0" encoding="UTF-8" standalone="no"?><!DOCTYPE svg PUBLIC "-//W3C//DTD SVG 1.1//EN" "http://www.w3.org/Graphics/SVG/1.1/DTD/svg11.dtd"><svg width="100%" height="100%" viewBox="0 0 108 18" version="1.1" xmlns="http://www.w3.org/2000/svg" xmlns:xlink="http://www.w3.org/1999/xlink" xml:space="preserve" xmlns:serif="http://www.serif.com/" style="fill-rule:evenodd;clip-rule:evenodd;stroke-linejoin:round;stroke-miterlimit:2;"><g opacity="0.5"><path d="M13.821,0.979c-2.285,3.265 -5.674,5.405 -9.218,7.034c-1.188,0.503 -2.404,0.949 -3.743,1.191c-0.395,0.073 -0.775,-0.188 -0.849,-0.584c-0.038,-0.209 0.021,-0.42 0.14,-0.577c0.838,-1.086 1.811,-1.95 2.809,-2.761c3.055,-2.364 6.41,-4.225 10.163,-5.255c0.541,-0.169 1.018,0.493 0.698,0.952" style="fill:#ff7271;fill-rule:nonzero;"/></g><g opacity="0.5"><path d="M22.623,3.895c-4.362,3.545 -9.021,6.382 -13.975,8.914c-1.657,0.819 -3.331,1.603 -5.113,2.248c-0.365,0.132 -0.767,-0.057 -0.899,-0.421c-0.089,-0.245 -0.032,-0.508 0.125,-0.694c2.525,-2.88 5.641,-5.01 8.894,-6.929c3.296,-1.85 6.708,-3.497 10.484,-4.195c0.6,-0.122 0.971,0.715 0.484,1.077" style="fill:#ff7271;fill-rule:nonzero;"/></g><g opacity="0.5"><path d="M24.724,8.723c-2.611,3.404 -6.245,5.729 -10.104,7.454c-1.299,0.538 -2.639,1.013 -4.108,1.227c-0.393,0.057 -0.759,-0.215 -0.816,-0.609c-0.032,-0.221 0.04,-0.434 0.18,-0.588c0.982,-1.071 2.056,-1.952 3.156,-2.792c3.365,-2.457 6.969,-4.521 11.019,-5.662c0.55,-0.169 1.02,0.521 0.673,0.97" style="fill:#ff7271;fill-rule:nonzero;"/></g><g opacity="0.5"><path d="M96.235,0.979c-2.285,3.265 -5.673,5.405 -9.218,7.034c-1.188,0.503 -2.403,0.949 -3.743,1.191c-0.395,0.073 -0.775,-0.188 -0.848,-0.584c-0.039,-0.209 0.02,-0.42 0.139,-0.577c0.838,-1.086 1.811,-1.95 2.809,-2.761c3.055,-2.364 6.41,-4.225 10.163,-5.255c0.541,-0.169 1.018,0.493 0.698,0.952" style="fill:#ff7271;fill-rule:nonzero;"/></g><g opacity="0.5"><path d="M105.036,3.895c-4.362,3.545 -9.021,6.382 -13.974,8.914c-1.658,0.819 -3.332,1.603 -5.114,2.248c-0.365,0.132 -0.767,-0.057 -0.899,-0.421c-0.089,-0.245 -0.032,-0.508 0.125,-0.694c2.525,-2.88 5.641,-5.01 8.894,-6.929c3.296,-1.85 6.708,-3.497 10.484,-4.195c0.6,-0.122 0.971,0.715 0.484,1.077" style="fill:#ff7271;fill-rule:nonzero;"/></g><g opacity="0.5"><path d="M107.138,8.723c-2.611,3.404 -6.245,5.729 -10.104,7.454c-1.299,0.538 -2.639,1.013 -4.108,1.227c-0.393,0.057 -0.758,-0.215 -0.816,-0.609c-0.032,-0.221 0.04,-0.434 0.18,-0.588c0.982,-1.071 2.056,-1.952 3.156,-2.792c3.365,-2.457 6.97,-4.521 11.019,-5.662c0.55,-0.169 1.02,0.521 0.673,0.97" style="fill:#ff7271;fill-rule:nonzero;"/></g></svg>