<?xml version="1.0" encoding="UTF-8" standalone="no"?><!DOCTYPE svg PUBLIC "-//W3C//DTD SVG 1.1//EN" "http://www.w3.org/Graphics/SVG/1.1/DTD/svg11.dtd"><svg width="100%" height="100%" viewBox="0 0 104 29" version="1.1" xmlns="http://www.w3.org/2000/svg" xmlns:xlink="http://www.w3.org/1999/xlink" xml:space="preserve" xmlns:serif="http://www.serif.com/" style="fill-rule:evenodd;clip-rule:evenodd;stroke-linejoin:round;stroke-miterlimit:2;"><path d="M12.908,24.785l19.84,-0c3.886,-2.982 6.393,-7.671 6.393,-12.947c0,-2.339 -0.495,-4.56 -1.381,-6.571l-29.864,-0c-0.886,2.011 -1.381,4.232 -1.381,6.571c0,5.276 2.507,9.965 6.393,12.947" style="fill:#240b4a;fill-rule:nonzero;"/><path d="M1.051,0.26c-1.005,0.402 -2.014,6.311 0.671,6.982c2.686,0.671 41.398,0.805 42.741,-0c1.342,-0.806 1.342,-3.894 0,-4.699c-1.343,-0.806 -40.727,-3.357 -43.412,-2.283" style="fill:#240b4a;fill-rule:nonzero;"/><path d="M5.348,24.029c-0.758,0.286 -1.293,3.731 0.803,3.968c2.097,0.237 31.932,-1.816 32.933,-2.352c1.002,-0.536 0.875,-2.307 -0.192,-2.695c-1.068,-0.388 -31.519,0.315 -33.544,1.079" style="fill:#240b4a;fill-rule:nonzero;"/><path d="M90.61,24.785l-19.84,-0c-3.886,-2.982 -6.394,-7.671 -6.394,-12.947c0,-2.339 0.496,-4.56 1.382,-6.571l29.863,-0c0.887,2.011 1.382,4.232 1.382,6.571c0,5.276 -2.507,9.965 -6.393,12.947" style="fill:#240b4a;fill-rule:nonzero;"/><path d="M102.467,0.26c1.005,0.402 2.014,6.311 -0.671,6.982c-2.686,0.671 -41.398,0.805 -42.74,-0c-1.343,-0.806 -1.343,-3.894 0,-4.699c1.342,-0.806 40.726,-3.357 43.411,-2.283" style="fill:#240b4a;fill-rule:nonzero;"/><path d="M98.17,24.029c0.758,0.286 1.293,3.731 -0.803,3.968c-2.097,0.237 -31.932,-1.816 -32.933,-2.352c-1.002,-0.536 -0.875,-2.307 0.192,-2.695c1.068,-0.388 31.519,0.315 33.544,1.079" style="fill:#240b4a;fill-rule:nonzero;"/><path d="M16.835,13.245c-0.463,2.354 -2.747,3.888 -5.101,3.425c-2.355,-0.462 -3.888,-2.746 -3.426,-5.101c0.463,-2.354 2.747,-3.888 5.102,-3.425c2.354,0.463 3.888,2.746 3.425,5.101" style="fill:#fff;fill-rule:nonzero;"/><path d="M16.662,20.81c-0.164,0.835 -0.975,1.38 -1.81,1.215c-0.836,-0.164 -1.38,-0.974 -1.216,-1.81c0.165,-0.835 0.975,-1.379 1.811,-1.215c0.835,0.164 1.379,0.974 1.215,1.81" style="fill:#fff;fill-rule:nonzero;"/><path d="M74.643,13.245c-0.463,2.354 -2.747,3.888 -5.101,3.425c-2.355,-0.462 -3.888,-2.746 -3.426,-5.101c0.463,-2.354 2.747,-3.888 5.102,-3.425c2.354,0.463 3.888,2.746 3.425,5.101" style="fill:#fff;fill-rule:nonzero;"/><path d="M74.47,20.81c-0.164,0.835 -0.975,1.38 -1.81,1.215c-0.836,-0.164 -1.38,-0.974 -1.216,-1.81c0.165,-0.835 0.975,-1.379 1.81,-1.215c0.836,0.164 1.38,0.974 1.216,1.81" style="fill:#fff;fill-rule:nonzero;"/></svg>