<?xml version="1.0" encoding="UTF-8" standalone="no"?><!DOCTYPE svg PUBLIC "-//W3C//DTD SVG 1.1//EN" "http://www.w3.org/Graphics/SVG/1.1/DTD/svg11.dtd"><svg width="100%" height="100%" viewBox="0 0 96 31" version="1.1" xmlns="http://www.w3.org/2000/svg" xmlns:xlink="http://www.w3.org/1999/xlink" xml:space="preserve" xmlns:serif="http://www.serif.com/" style="fill-rule:evenodd;clip-rule:evenodd;stroke-linejoin:round;stroke-miterlimit:2;"><path d="M4.629,1.881c-0.53,0.145 -4.451,5.038 -4.11,6.155c0.34,1.117 28.484,21.386 29.357,20.96c0.873,-0.425 2.774,-3.088 2.893,-4.052c0.12,-0.964 -26.725,-23.451 -28.14,-23.063" style="fill:#240b4a;fill-rule:nonzero;"/><path d="M27.315,0.027c0.676,0.35 6.747,8.254 6.65,9.713c-0.096,1.459 -28.191,21.796 -29.357,20.96c-1.166,-0.836 -4.191,-5.073 -4.603,-6.447c-0.412,-1.374 25.504,-25.161 27.31,-24.226" style="fill:#240b4a;fill-rule:nonzero;"/><path d="M89.574,0.401c0.646,0.309 6.283,7.605 6.138,8.995c-0.146,1.39 -28.251,21.714 -29.357,20.96c-1.107,-0.753 -3.905,-4.672 -4.258,-5.964c-0.354,-1.291 25.75,-24.816 27.477,-23.991" style="fill:#240b4a;fill-rule:nonzero;"/><path d="M68.085,0.672c-0.542,0.09 -4.942,4.557 -4.718,5.703c0.225,1.146 26.149,24.185 27.061,23.851c0.912,-0.334 3.075,-2.789 3.292,-3.735c0.217,-0.947 -24.188,-26.06 -25.635,-25.819" style="fill:#240b4a;fill-rule:nonzero;"/></svg>