<?xml version="1.0" encoding="UTF-8" standalone="no"?><!DOCTYPE svg PUBLIC "-//W3C//DTD SVG 1.1//EN" "http://www.w3.org/Graphics/SVG/1.1/DTD/svg11.dtd"><svg width="100%" height="100%" viewBox="0 0 99 27" version="1.1" xmlns="http://www.w3.org/2000/svg" xmlns:xlink="http://www.w3.org/1999/xlink" xml:space="preserve" xmlns:serif="http://www.serif.com/" style="fill-rule:evenodd;clip-rule:evenodd;stroke-linejoin:round;stroke-miterlimit:2;"><path d="M79.67,0.002c-0.024,0.004 -0.052,0.018 -0.076,0.024c-0.025,-0.006 -0.053,-0.02 -0.077,-0.024c-1.23,-0.225 -18.935,16.8 -19.053,19.359c-0.045,0.958 4.713,8.088 6.354,7.485c1.086,-0.399 8.16,-9.019 12.776,-15.267c4.616,6.248 11.69,14.868 12.775,15.267c1.641,0.603 6.399,-6.527 6.354,-7.485c-0.118,-2.559 -17.823,-19.584 -19.053,-19.359" style="fill:#240b4a;fill-rule:nonzero;"/><path d="M19.206,0.002c-0.024,0.004 -0.052,0.018 -0.076,0.024c-0.025,-0.006 -0.053,-0.02 -0.077,-0.024c-1.23,-0.225 -18.935,16.8 -19.053,19.359c-0.045,0.958 4.713,8.088 6.354,7.485c1.086,-0.399 8.16,-9.019 12.776,-15.267c4.616,6.248 11.69,14.868 12.775,15.267c1.641,0.603 6.399,-6.527 6.354,-7.485c-0.118,-2.559 -17.823,-19.584 -19.053,-19.359" style="fill:#240b4a;fill-rule:nonzero;"/></svg>