<?xml version="1.0" encoding="UTF-8" standalone="no"?><!DOCTYPE svg PUBLIC "-//W3C//DTD SVG 1.1//EN" "http://www.w3.org/Graphics/SVG/1.1/DTD/svg11.dtd"><svg width="100%" height="100%" viewBox="0 0 104 56" version="1.1" xmlns="http://www.w3.org/2000/svg" xmlns:xlink="http://www.w3.org/1999/xlink" xml:space="preserve" xmlns:serif="http://www.serif.com/" style="fill-rule:evenodd;clip-rule:evenodd;stroke-linejoin:round;stroke-miterlimit:2;"><path d="M10.647,10.687c-0,5.583 4.178,5.583 4.178,11.165c-0,5.583 -4.178,5.583 -4.178,11.166c-0,5.582 4.178,5.582 4.178,11.164c-0,5.581 -4.178,5.581 -4.178,11.163l19.998,-0c-0,-5.582 4.178,-5.582 4.178,-11.163c-0,-5.582 -4.178,-5.582 -4.178,-11.164c-0,-5.583 4.178,-5.583 4.178,-11.166c-0,-5.582 -4.178,-5.582 -4.178,-11.165l-19.998,-0Z" style="fill:#97e2ff;fill-rule:nonzero;"/><path d="M68.695,10.687c0,5.583 4.178,5.583 4.178,11.165c0,5.583 -4.178,5.583 -4.178,11.166c0,5.582 4.178,5.582 4.178,11.164c0,5.581 -4.178,5.581 -4.178,11.163l19.998,-0c0,-5.582 4.178,-5.582 4.178,-11.163c0,-5.582 -4.178,-5.582 -4.178,-11.164c0,-5.583 4.178,-5.583 4.178,-11.166c0,-5.582 -4.178,-5.582 -4.178,-11.165l-19.998,-0Z" style="fill:#97e2ff;fill-rule:nonzero;"/><path d="M1.051,13.162c-1.005,-0.702 -2.014,-11.02 0.671,-12.193c2.686,-1.172 41.398,-1.407 42.741,0c1.342,1.407 1.342,6.8 0,8.207c-1.343,1.407 -40.727,5.862 -43.412,3.986" style="fill:#240b4a;fill-rule:nonzero;"/><path d="M102.467,13.162c1.005,-0.702 2.014,-11.02 -0.671,-12.193c-2.686,-1.172 -41.398,-1.407 -42.74,0c-1.343,1.407 -1.343,6.8 0,8.207c1.342,1.407 40.726,5.862 43.411,3.986" style="fill:#240b4a;fill-rule:nonzero;"/></svg>