<?xml version="1.0" encoding="UTF-8" standalone="no"?><!DOCTYPE svg PUBLIC "-//W3C//DTD SVG 1.1//EN" "http://www.w3.org/Graphics/SVG/1.1/DTD/svg11.dtd"><svg width="100%" height="100%" viewBox="0 0 87 53" version="1.1" xmlns="http://www.w3.org/2000/svg" xmlns:xlink="http://www.w3.org/1999/xlink" xml:space="preserve" xmlns:serif="http://www.serif.com/" style="fill-rule:evenodd;clip-rule:evenodd;stroke-linejoin:round;stroke-miterlimit:2;"><path d="M16.313,49.496c-7.278,0 -13.199,-5.921 -13.199,-13.199c0,-7.278 5.921,-13.199 13.199,-13.199c7.277,0 13.198,5.921 13.198,13.199c0,7.278 -5.921,13.199 -13.198,13.199" style="fill:#fff;fill-rule:nonzero;"/><path d="M16.313,19.984c-9.01,0 -16.313,7.304 -16.313,16.313c0,9.01 7.303,16.314 16.313,16.314c9.01,0 16.313,-7.304 16.313,-16.314c0,-9.009 -7.303,-16.313 -16.313,-16.313m0,6.23c5.56,0 10.084,4.523 10.084,10.083c0,5.561 -4.524,10.084 -10.084,10.084c-5.56,0 -10.084,-4.523 -10.084,-10.084c0,-5.56 4.524,-10.083 10.084,-10.083" style="fill:#240b4a;fill-rule:nonzero;"/><path d="M69.885,49.496c-7.277,0 -13.198,-5.921 -13.198,-13.199c-0,-7.278 5.921,-13.199 13.198,-13.199c7.277,0 13.198,5.921 13.198,13.199c-0,7.278 -5.921,13.199 -13.198,13.199" style="fill:#fff;fill-rule:nonzero;"/><path d="M69.885,19.984c-9.01,0 -16.313,7.304 -16.313,16.313c0,9.01 7.303,16.314 16.313,16.314c9.01,0 16.313,-7.304 16.313,-16.314c0,-9.009 -7.303,-16.313 -16.313,-16.313m0,6.23c5.56,0 10.084,4.523 10.084,10.083c0,5.561 -4.524,10.084 -10.084,10.084c-5.56,0 -10.084,-4.523 -10.084,-10.084c0,-5.56 4.524,-10.083 10.084,-10.083" style="fill:#240b4a;fill-rule:nonzero;"/><path d="M78.079,15.172c2.007,0.364 6.051,-4.389 1.333,-6.982c-4.718,-2.594 -17.832,-7.94 -20.611,-8.176c-2.78,-0.235 -3.919,2.635 -1.733,4.369c2.186,1.733 15.649,9.818 21.011,10.789" style="fill:#240b4a;fill-rule:nonzero;"/><path d="M8.12,15.172c-2.007,0.364 -6.051,-4.389 -1.333,-6.982c4.718,-2.594 17.832,-7.94 20.611,-8.176c2.78,-0.235 3.919,2.635 1.733,4.369c-2.186,1.733 -15.65,9.818 -21.011,10.789" style="fill:#240b4a;fill-rule:nonzero;"/></svg>