<?xml version="1.0" encoding="UTF-8" standalone="no"?><!DOCTYPE svg PUBLIC "-//W3C//DTD SVG 1.1//EN" "http://www.w3.org/Graphics/SVG/1.1/DTD/svg11.dtd"><svg width="100%" height="100%" viewBox="0 0 106 88" version="1.1" xmlns="http://www.w3.org/2000/svg" xmlns:xlink="http://www.w3.org/1999/xlink" xml:space="preserve" xmlns:serif="http://www.serif.com/" style="fill-rule:evenodd;clip-rule:evenodd;stroke-linejoin:round;stroke-miterlimit:2;"><g><path d="M77.596,46.145c-0,20.816 -15.182,37.689 -33.907,37.689c-18.728,0 -33.91,-16.873 -33.91,-37.689c0,-20.817 15.182,-37.69 33.91,-37.69c18.725,0 33.907,16.873 33.907,37.69" style="fill:#7abcf5;fill-rule:nonzero;"/><path d="M77.756,18.076c0,9.984 -5.596,18.076 -12.498,18.076c-6.903,-0 -12.499,-8.092 -12.499,-18.076c0,-9.984 5.596,-18.076 12.499,-18.076c6.902,0 12.498,8.092 12.498,18.076" style="fill:#7abcf5;fill-rule:nonzero;"/><path d="M33.46,18.578c2.753,9.155 -1.471,20.637 -9.432,25.646c-7.962,5.01 -16.647,1.65 -19.399,-7.505c-2.753,-9.155 1.471,-20.637 9.433,-25.647c7.961,-5.009 16.646,-1.65 19.398,7.506" style="fill:#7abcf5;fill-rule:nonzero;"/><path d="M57.631,17.77c0.708,9.931 -5.721,19.024 -14.356,20.311c-8.637,1.287 -16.211,-5.719 -16.918,-15.65c-0.708,-9.931 5.72,-19.024 14.357,-20.312c8.636,-1.287 16.21,5.72 16.917,15.651" style="fill:#7abcf5;fill-rule:nonzero;"/><path d="M31.328,53.096c0.707,9.931 -5.721,19.024 -14.357,20.311c-8.636,1.287 -16.211,-5.719 -16.918,-15.65c-0.707,-9.931 5.721,-19.024 14.358,-20.311c8.635,-1.287 16.21,5.719 16.917,15.65" style="fill:#7abcf5;fill-rule:nonzero;"/><path d="M95.876,20.076c0.707,9.931 -5.721,19.024 -14.356,20.312c-8.637,1.287 -16.212,-5.719 -16.919,-15.651c-0.707,-9.931 5.721,-19.024 14.358,-20.311c8.636,-1.287 16.21,5.719 16.917,15.65" style="fill:#7abcf5;fill-rule:nonzero;"/><path d="M105.925,31.701c0.707,9.931 -5.721,19.024 -14.356,20.311c-8.637,1.287 -16.212,-5.719 -16.919,-15.65c-0.707,-9.931 5.721,-19.024 14.358,-20.311c8.635,-1.287 16.21,5.719 16.917,15.65" style="fill:#7abcf5;fill-rule:nonzero;"/><path d="M92.273,40.878c3.276,8.787 -0.263,20.743 -7.904,26.705c-7.642,5.963 -16.492,3.674 -19.768,-5.113c-3.276,-8.787 0.264,-20.743 7.906,-26.706c7.64,-5.962 16.491,-3.673 19.766,5.114" style="fill:#7abcf5;fill-rule:nonzero;"/><path d="M79.131,71.744c-0.62,9.943 -8.133,17.088 -16.779,15.959c-8.647,-1.129 -15.154,-10.103 -14.534,-20.046c0.62,-9.944 8.132,-17.088 16.78,-15.959c8.646,1.128 15.153,10.103 14.533,20.046" style="fill:#7abcf5;fill-rule:nonzero;"/></g></svg>