<?xml version="1.0" encoding="UTF-8" standalone="no"?><!DOCTYPE svg PUBLIC "-//W3C//DTD SVG 1.1//EN" "http://www.w3.org/Graphics/SVG/1.1/DTD/svg11.dtd"><svg width="100%" height="100%" viewBox="0 0 101 85" version="1.1" xmlns="http://www.w3.org/2000/svg" xmlns:xlink="http://www.w3.org/1999/xlink" xml:space="preserve" xmlns:serif="http://www.serif.com/" style="fill-rule:evenodd;clip-rule:evenodd;stroke-linejoin:round;stroke-miterlimit:2;"><path d="M98.268,46.089c-0,25.329 -31.488,39.051 -49.833,38.69c-17.407,-0.342 -48.279,-13.361 -48.279,-38.69c-0,-12.023 -1.69,-37.539 6.483,-44.215c5.459,-4.46 3.733,4.057 12.894,7.069c6.018,1.978 22.654,-1.604 28.298,-1.604c6.441,0 22.81,2.655 30.118,0.268c8.225,-2.687 7.274,-10.271 11.943,-6.642c8.631,6.708 8.376,32.596 8.376,45.124" style="fill:#ffc899;fill-opacity:0.26;fill-rule:nonzero;"/><g opacity="0.5"><path d="M17.435,14.579c2.436,-2.627 -6.833,-8.636 -7.874,-10.92c-1.27,-2.788 -3.32,2.019 -3.495,2.287c-3.331,5.115 -2.411,10.432 -2.075,15.402c0.114,1.69 3.775,0.076 8.741,-1.74" style="fill-rule:nonzero;"/><path d="M17.435,14.579c2.436,-2.627 -6.833,-8.636 -7.874,-10.92c-1.27,-2.788 -3.32,2.019 -3.495,2.287c-3.331,5.115 -2.411,10.432 -2.075,15.402c0.114,1.69 3.775,0.076 8.741,-1.74" style="fill-rule:nonzero;"/></g><g opacity="0.5"><path d="M79.895,15.518c-2.435,-2.542 6.279,-8.868 7.202,-11.187c1.126,-2.83 3.266,1.903 3.444,2.165c3.383,4.997 2.681,10.342 2.531,15.321c-0.051,1.693 -3.632,0.206 -8.475,-1.436" style="fill-rule:nonzero;"/><path d="M79.895,15.518c-2.435,-2.542 6.279,-8.868 7.202,-11.187c1.126,-2.83 3.266,1.903 3.444,2.165c3.383,4.997 2.681,10.342 2.531,15.321c-0.051,1.693 -3.632,0.206 -8.475,-1.436" style="fill-rule:nonzero;"/></g><g><g opacity="0.5"><path d="M99.022,51.037c-5.291,-1.337 -10.565,-1.909 -15.978,-2.082c-1.801,-0.032 -3.602,-0.025 -5.443,0.152c-0.378,0.037 -0.66,0.378 -0.632,0.762c0.018,0.258 0.173,0.471 0.387,0.572c3.393,1.519 7.012,2.111 10.669,2.454c3.668,0.264 7.359,0.296 10.995,-0.682c0.582,-0.146 0.579,-1.057 0.002,-1.176" style="fill-rule:nonzero;"/></g><g opacity="0.5"><path d="M97.277,61.35c-4.637,-2.878 -9.488,-5.022 -14.594,-6.828c-1.706,-0.577 -3.424,-1.117 -5.233,-1.506c-0.371,-0.08 -0.743,0.16 -0.833,0.534c-0.061,0.252 0.022,0.501 0.195,0.662c2.772,2.477 6.042,4.139 9.422,5.574c3.416,1.364 6.923,2.514 10.685,2.684c0.599,0.038 0.872,-0.831 0.358,-1.12" style="fill-rule:nonzero;"/></g><g opacity="0.5"><path d="M99.669,41.521c-5.456,-0.078 -10.719,0.584 -16.026,1.666c-1.759,0.385 -3.51,0.807 -5.261,1.405c-0.359,0.123 -0.554,0.52 -0.439,0.887c0.078,0.248 0.278,0.419 0.509,0.467c3.652,0.695 7.31,0.435 10.947,-0.076c3.63,-0.591 7.228,-1.413 10.54,-3.204c0.533,-0.276 0.319,-1.163 -0.27,-1.145" style="fill-rule:nonzero;"/></g></g><g><g opacity="0.5"><path d="M1.633,55.2c5.454,-0.199 10.676,-1.126 15.921,-2.476c1.738,-0.474 3.465,-0.984 5.184,-1.67c0.352,-0.141 0.527,-0.548 0.393,-0.909c-0.09,-0.243 -0.299,-0.403 -0.532,-0.44c-3.682,-0.508 -7.323,-0.063 -10.929,0.631c-3.595,0.774 -7.147,1.777 -10.364,3.734c-0.519,0.303 -0.26,1.177 0.327,1.13" style="fill-rule:nonzero;"/></g><g opacity="0.5"><path d="M0.42,44.81c5.257,1.465 10.515,2.165 15.922,2.469c1.8,0.076 3.6,0.113 5.446,-0.02c0.378,-0.027 0.668,-0.361 0.65,-0.746c-0.012,-0.259 -0.162,-0.475 -0.373,-0.581c-3.355,-1.601 -6.959,-2.281 -10.606,-2.713c-3.661,-0.352 -7.35,-0.474 -11.009,0.416c-0.585,0.131 -0.604,1.043 -0.03,1.175" style="fill-rule:nonzero;"/></g><g opacity="0.5"><path d="M3.676,64.516c5.26,-1.453 10.127,-3.562 14.919,-6.087c1.581,-0.862 3.144,-1.758 4.657,-2.822c0.31,-0.218 0.387,-0.655 0.173,-0.975c-0.144,-0.215 -0.384,-0.323 -0.62,-0.305c-3.699,0.356 -7.139,1.629 -10.487,3.139c-3.319,1.583 -6.544,3.379 -9.221,6.027c-0.435,0.414 0.019,1.205 0.579,1.023" style="fill-rule:nonzero;"/></g></g></svg>