<?xml version="1.0" encoding="UTF-8" standalone="no"?><!DOCTYPE svg PUBLIC "-//W3C//DTD SVG 1.1//EN" "http://www.w3.org/Graphics/SVG/1.1/DTD/svg11.dtd"><svg width="100%" height="100%" viewBox="0 0 100 101" version="1.1" xmlns="http://www.w3.org/2000/svg" xmlns:xlink="http://www.w3.org/1999/xlink" xml:space="preserve" xmlns:serif="http://www.serif.com/" style="fill-rule:evenodd;clip-rule:evenodd;stroke-linejoin:round;stroke-miterlimit:2;"><path d="M99.405,62.241c0,25.328 -31.487,39.051 -49.832,38.69c-17.407,-0.343 -48.279,-13.362 -48.279,-38.69c-0,-12.023 -5.157,-57.063 5.119,-59.468c5.395,-1.263 20.071,11.455 17.652,10.536c-24.316,-9.236 -9.931,9.636 -3.394,11.785c6.018,1.979 22.654,-1.603 28.297,-1.603c6.441,-0 22.811,2.655 30.119,0.268c5.562,-1.817 16.931,-20.324 -5.825,-13.149c-3.331,1.05 11.669,-9.823 16.544,-10.571c10.805,-1.657 9.599,49.673 9.599,62.202" style="fill:#760006;fill-opacity:0.26;fill-rule:nonzero;"/><path d="M48.706,24.493c-0.5,5.435 -0.247,10.733 0.422,16.107c0.248,1.784 0.533,3.563 0.994,5.354c0.095,0.367 0.476,0.593 0.851,0.507c0.252,-0.059 0.438,-0.245 0.504,-0.472c0.975,-3.587 0.999,-7.254 0.77,-10.92c-0.308,-3.665 -0.849,-7.316 -2.379,-10.756c-0.234,-0.553 -1.135,-0.408 -1.162,0.18" style="fill-rule:nonzero;"/><path d="M59.165,24.617c-2.124,5.027 -3.49,10.152 -4.482,15.477c-0.305,1.775 -0.572,3.556 -0.676,5.403c-0.021,0.379 0.273,0.709 0.657,0.74c0.258,0.022 0.492,-0.1 0.624,-0.296c2.016,-3.122 3.151,-6.61 4.045,-10.172c0.817,-3.586 1.409,-7.229 0.994,-10.972c-0.056,-0.597 -0.957,-0.732 -1.162,-0.18" style="fill-rule:nonzero;"/><path d="M39.205,25.33c0.769,5.402 2.239,10.499 4.131,15.573c0.654,1.679 1.342,3.343 2.205,4.98c0.176,0.335 0.599,0.467 0.944,0.296c0.232,-0.115 0.37,-0.339 0.382,-0.575c0.12,-3.715 -0.704,-7.289 -1.773,-10.803c-1.147,-3.494 -2.517,-6.922 -4.801,-9.916c-0.355,-0.483 -1.197,-0.135 -1.088,0.445" style="fill-rule:nonzero;"/></svg>