<?xml version="1.0" encoding="UTF-8" standalone="no"?>
<svg fill="#ef993f78" width="100%" height="100%" viewBox="0 0 107 108" version="1.1" xmlns="http://www.w3.org/2000/svg">
<path d="M100.083,53.55c-0,29.576 -21.964,53.55 -49.054,53.55c-27.094,-0 -49.058,-23.974 -49.058,-53.55c0,-29.577 21.964,-53.55 49.058,-53.55c27.09,0 49.054,23.973 49.054,53.55" style="fill:#c199ff;fill-rule:nonzero;"/><path d="M29.722,9.349c3.31,7.592 -0.389,16.528 -8.261,19.96c-7.873,3.433 -16.938,0.062 -20.248,-7.53c-3.31,-7.592 0.389,-16.528 8.261,-19.961c7.872,-3.432 16.938,-0.061 20.248,7.531" style="fill:#c199ff;fill-rule:nonzero;"/><path d="M105.585,10.653c3.311,7.592 -0.388,16.529 -8.26,19.961c-7.873,3.433 -16.938,0.062 -20.249,-7.53c-3.31,-7.592 0.389,-16.529 8.262,-19.961c7.872,-3.433 16.937,-0.062 20.247,7.53" style="fill:#c199ff;fill-rule:nonzero;"/></svg>