<?xml version="1.0" encoding="UTF-8" standalone="no"?><!DOCTYPE svg PUBLIC "-//W3C//DTD SVG 1.1//EN" "http://www.w3.org/Graphics/SVG/1.1/DTD/svg11.dtd"><svg width="100%" height="100%" viewBox="0 0 31 16" version="1.1" xmlns="http://www.w3.org/2000/svg" xmlns:xlink="http://www.w3.org/1999/xlink" xml:space="preserve" xmlns:serif="http://www.serif.com/" style="fill-rule:evenodd;clip-rule:evenodd;stroke-linejoin:round;stroke-miterlimit:2;"><path d="M30.725,3.757c-0,0 0.803,12.166 -15.687,12.166c-16.489,0 -14.993,-12.763 -14.993,-12.763c-0,0 -1.618,-3.16 14.702,-3.16c16.321,0 15.978,3.757 15.978,3.757" style="fill:#ff7271;fill-rule:nonzero;"/><g opacity="0.3"><path d="M1.655,10.062c4.093,-1.793 8.54,-2.796 12.876,-2.796c5.024,0 9.718,1.22 13.999,3.357c2.425,-3.279 2.195,-6.866 2.195,-6.866c0,0 0.343,-3.757 -15.978,-3.757c-16.321,0 -14.703,3.16 -14.703,3.16c0,0 -0.412,3.547 1.611,6.902" style="fill-rule:nonzero;"/></g></svg>