<?xml version="1.0" encoding="UTF-8" standalone="no"?><!DOCTYPE svg PUBLIC "-//W3C//DTD SVG 1.1//EN" "http://www.w3.org/Graphics/SVG/1.1/DTD/svg11.dtd"><svg width="100%" height="100%" viewBox="0 0 31 16" version="1.1" xmlns="http://www.w3.org/2000/svg" xmlns:xlink="http://www.w3.org/1999/xlink" xml:space="preserve" xmlns:serif="http://www.serif.com/" style="fill-rule:evenodd;clip-rule:evenodd;stroke-linejoin:round;stroke-miterlimit:2;"><path d="M0.006,12.166c0,-0 -0.803,-12.166 15.687,-12.166c16.489,-0 14.993,12.763 14.993,12.763c0,-0 1.618,3.16 -14.702,3.16c-16.321,-0 -15.978,-3.757 -15.978,-3.757" style="fill:#ff7271;fill-rule:nonzero;"/><g opacity="0.3"><path d="M0.04,12.391c4.358,-3.24 9.681,-5.192 15.099,-5.192c6.001,0 11.339,2.08 15.552,5.513c0.079,-0.847 0.902,-12.712 -14.999,-12.712c-16.489,0 -15.686,12.166 -15.686,12.166c0,0 -0.006,0.084 0.034,0.225" style="fill-rule:nonzero;"/></g></svg>