<?xml version="1.0" encoding="UTF-8" standalone="no"?><!DOCTYPE svg PUBLIC "-//W3C//DTD SVG 1.1//EN" "http://www.w3.org/Graphics/SVG/1.1/DTD/svg11.dtd"><svg width="100%" height="100%" viewBox="0 0 98 15" version="1.1" xmlns="http://www.w3.org/2000/svg" xmlns:xlink="http://www.w3.org/1999/xlink" xml:space="preserve" xmlns:serif="http://www.serif.com/" style="fill-rule:evenodd;clip-rule:evenodd;stroke-linejoin:round;stroke-miterlimit:2;"><path d="M61.058,6.927c0.141,0.057 0.285,0.11 0.426,0.164c-0.089,0.264 -0.136,0.547 -0.133,0.828c-0.405,-0.085 -0.808,-0.176 -1.213,-0.267c-2.292,-0.544 -3.477,3.11 -0.999,3.902c6.196,1.89 12.584,2.81 18.966,2.754c3.191,-0.028 6.38,-0.299 9.543,-0.814c2.942,-0.476 5.999,-0.994 8.715,-2.39c1.469,-0.764 1.093,-2.457 0.102,-3.243c0.23,-1.346 -0.8,-2.824 -2.265,-2.401c-0.151,0.043 -0.301,0.085 -0.451,0.126c-0.004,-0.472 -0.139,-0.933 -0.378,-1.296c0.329,-0.175 0.658,-0.353 0.984,-0.533c1.797,-1.017 0.299,-4.232 -1.425,-3.697c-9.933,2.972 -20.419,3.011 -30.37,0.116c-1.573,-0.468 -2.613,1.727 -1.969,3.075c-1.013,0.815 -1.14,3.024 0.467,3.676" style="fill:#240b4a;fill-rule:nonzero;"/><path d="M3.298,6.927c0.142,0.057 0.284,0.11 0.426,0.164c-0.089,0.265 -0.136,0.547 -0.133,0.828c-0.405,-0.085 -0.808,-0.176 -1.213,-0.267c-2.293,-0.544 -3.476,3.11 -0.999,3.902c6.197,1.89 12.584,2.81 18.966,2.754c3.19,-0.028 6.38,-0.299 9.543,-0.814c2.943,-0.476 5.999,-0.994 8.716,-2.39c1.469,-0.764 1.092,-2.457 0.101,-3.243c0.229,-1.346 -0.8,-2.824 -2.265,-2.401c-0.15,0.042 -0.301,0.085 -0.451,0.126c-0.004,-0.472 -0.137,-0.933 -0.378,-1.296c0.33,-0.175 0.657,-0.353 0.984,-0.533c1.796,-1.017 0.3,-4.232 -1.425,-3.697c-9.934,2.972 -20.42,3.011 -30.37,0.116c-1.572,-0.468 -2.614,1.728 -1.969,3.075c-1.014,0.815 -1.14,3.024 0.467,3.676" style="fill:#240b4a;fill-rule:nonzero;"/></svg>