<?xml version="1.0" encoding="UTF-8" standalone="no"?><!DOCTYPE svg PUBLIC "-//W3C//DTD SVG 1.1//EN" "http://www.w3.org/Graphics/SVG/1.1/DTD/svg11.dtd"><svg width="100%" height="100%" viewBox="0 0 108 27" version="1.1" xmlns="http://www.w3.org/2000/svg" xmlns:xlink="http://www.w3.org/1999/xlink" xml:space="preserve" xmlns:serif="http://www.serif.com/" style="fill-rule:evenodd;clip-rule:evenodd;stroke-linejoin:round;stroke-miterlimit:2;"><path d="M11.524,4.469c-0.621,1.726 -0.962,3.586 -0.962,5.525c-0,9.01 7.304,16.314 16.314,16.314c9.01,0 16.313,-7.304 16.313,-16.314c-0,-1.939 -0.34,-3.799 -0.961,-5.525l-30.704,0Z" style="fill:#240b4a;fill-rule:nonzero;"/><path d="M65.096,4.469c-0.621,1.726 -0.961,3.586 -0.961,5.525c-0,9.01 7.303,16.314 16.313,16.314c9.01,0 16.313,-7.304 16.313,-16.314c-0,-1.939 -0.34,-3.799 -0.961,-5.525l-30.704,0Z" style="fill:#240b4a;fill-rule:nonzero;"/><path d="M1.051,0.26c-1.005,0.402 -2.014,6.31 0.671,6.982c2.686,0.671 103.251,0.806 104.594,-0c1.342,-0.806 1.342,-3.894 0,-4.699c-1.343,-0.806 -102.58,-3.357 -105.265,-2.283" style="fill:#240b4a;fill-rule:nonzero;"/><path d="M22.462,13.641c-0,2.4 -1.945,4.345 -4.345,4.345c-2.399,0 -4.345,-1.945 -4.345,-4.345c-0,-2.4 1.946,-4.345 4.345,-4.345c2.4,0 4.345,1.945 4.345,4.345" style="fill:#fff;fill-rule:nonzero;"/><path d="M23.751,21.097c0,0.852 -0.69,1.542 -1.542,1.542c-0.851,0 -1.541,-0.69 -1.541,-1.542c0,-0.851 0.69,-1.542 1.541,-1.542c0.852,0 1.542,0.691 1.542,1.542" style="fill:#fff;fill-rule:nonzero;"/><path d="M75.833,13.641c-0,2.4 -1.945,4.345 -4.345,4.345c-2.399,0 -4.345,-1.945 -4.345,-4.345c-0,-2.4 1.946,-4.345 4.345,-4.345c2.4,0 4.345,1.945 4.345,4.345" style="fill:#fff;fill-rule:nonzero;"/><path d="M77.122,21.097c0,0.852 -0.69,1.542 -1.542,1.542c-0.851,0 -1.541,-0.69 -1.541,-1.542c0,-0.851 0.69,-1.542 1.541,-1.542c0.852,0 1.542,0.691 1.542,1.542" style="fill:#fff;fill-rule:nonzero;"/></svg>