<?xml version="1.0" encoding="UTF-8" standalone="no"?><!DOCTYPE svg PUBLIC "-//W3C//DTD SVG 1.1//EN" "http://www.w3.org/Graphics/SVG/1.1/DTD/svg11.dtd"><svg width="100%" height="100%" viewBox="0 0 87 33" version="1.1" xmlns="http://www.w3.org/2000/svg" xmlns:xlink="http://www.w3.org/1999/xlink" xml:space="preserve" xmlns:serif="http://www.serif.com/" style="fill-rule:evenodd;clip-rule:evenodd;stroke-linejoin:round;stroke-miterlimit:2;"><path d="M32.627,16.313c0,9.01 -7.304,16.313 -16.313,16.313c-9.01,0 -16.314,-7.303 -16.314,-16.313c0,-9.01 7.304,-16.313 16.314,-16.313c9.009,-0 16.313,7.303 16.313,16.313" style="fill:#240b4a;fill-rule:nonzero;"/><path d="M11.579,12.394c-2.299,0.689 -4.72,-0.616 -5.41,-2.914c-0.689,-2.299 0.616,-4.72 2.915,-5.41c2.298,-0.689 4.72,0.616 5.409,2.915c0.689,2.298 -0.616,4.72 -2.914,5.409" style="fill:#fff;fill-rule:nonzero;"/><path d="M4.807,15.77c-0.816,0.245 -1.675,-0.218 -1.919,-1.034c-0.245,-0.816 0.218,-1.675 1.034,-1.92c0.815,-0.244 1.675,0.219 1.919,1.035c0.245,0.815 -0.218,1.674 -1.034,1.919" style="fill:#fff;fill-rule:nonzero;"/><path d="M86.199,16.313c0,9.01 -7.304,16.313 -16.313,16.313c-9.01,0 -16.314,-7.303 -16.314,-16.313c0,-9.01 7.304,-16.313 16.314,-16.313c9.009,-0 16.313,7.303 16.313,16.313" style="fill:#240b4a;fill-rule:nonzero;"/><path d="M65.013,12.394c-2.298,0.689 -4.72,-0.616 -5.409,-2.914c-0.69,-2.299 0.615,-4.72 2.914,-5.41c2.298,-0.689 4.72,0.616 5.409,2.915c0.689,2.298 -0.615,4.72 -2.914,5.409" style="fill:#fff;fill-rule:nonzero;"/><path d="M58.241,15.77c-0.816,0.245 -1.675,-0.218 -1.92,-1.034c-0.244,-0.816 0.219,-1.675 1.035,-1.92c0.815,-0.244 1.674,0.219 1.919,1.035c0.245,0.815 -0.218,1.674 -1.034,1.919" style="fill:#fff;fill-rule:nonzero;"/></svg>