<?xml version="1.0" encoding="UTF-8" standalone="no"?><!DOCTYPE svg PUBLIC "-//W3C//DTD SVG 1.1//EN" "http://www.w3.org/Graphics/SVG/1.1/DTD/svg11.dtd"><svg width="100%" height="100%" viewBox="0 0 87 33" version="1.1" xmlns="http://www.w3.org/2000/svg" xmlns:xlink="http://www.w3.org/1999/xlink" xml:space="preserve" xmlns:serif="http://www.serif.com/" style="fill-rule:evenodd;clip-rule:evenodd;stroke-linejoin:round;stroke-miterlimit:2;"><path d="M25.776,29.584c4.57,-3.259 7.391,-8.807 6.763,-14.979c-0.802,-7.886 -7.396,-14.148 -15.312,-14.58c-9.424,-0.515 -17.227,6.975 -17.227,16.288c-0,1.512 0.211,2.972 0.6,4.359c0.448,1.596 1.915,2.68 3.573,2.621c3.713,-0.133 10.949,0.449 17.157,6.054c1.237,1.117 3.089,1.204 4.446,0.237" style="fill:#240b4a;fill-rule:nonzero;"/><path d="M11.578,12.394c-2.298,0.689 -4.72,-0.616 -5.41,-2.914c-0.689,-2.299 0.616,-4.721 2.915,-5.41c2.298,-0.689 4.72,0.616 5.409,2.914c0.689,2.299 -0.615,4.721 -2.914,5.41" style="fill:#fff;fill-rule:nonzero;"/><path d="M4.806,15.77c-0.816,0.244 -1.675,-0.218 -1.919,-1.034c-0.245,-0.816 0.218,-1.675 1.034,-1.92c0.815,-0.244 1.675,0.219 1.919,1.034c0.245,0.816 -0.218,1.675 -1.034,1.92" style="fill:#fff;fill-rule:nonzero;"/><path d="M86.199,16.313c-0,9.01 -7.304,16.313 -16.313,16.313c-9.01,0 -16.314,-7.303 -16.314,-16.313c-0,-9.01 7.304,-16.313 16.314,-16.313c9.009,0 16.313,7.303 16.313,16.313" style="fill:#240b4a;fill-rule:nonzero;"/><path d="M65.012,12.394c-2.298,0.689 -4.72,-0.616 -5.41,-2.914c-0.689,-2.299 0.616,-4.721 2.915,-5.41c2.298,-0.689 4.72,0.616 5.409,2.914c0.689,2.299 -0.615,4.721 -2.914,5.41" style="fill:#fff;fill-rule:nonzero;"/><path d="M58.24,15.77c-0.816,0.244 -1.675,-0.218 -1.919,-1.034c-0.245,-0.816 0.218,-1.675 1.034,-1.92c0.815,-0.244 1.675,0.219 1.919,1.034c0.245,0.816 -0.218,1.675 -1.034,1.92" style="fill:#fff;fill-rule:nonzero;"/></svg>