<?xml version="1.0" encoding="UTF-8" standalone="no"?><!DOCTYPE svg PUBLIC "-//W3C//DTD SVG 1.1//EN" "http://www.w3.org/Graphics/SVG/1.1/DTD/svg11.dtd"><svg width="100%" height="100%" viewBox="0 0 99 33" version="1.1" xmlns="http://www.w3.org/2000/svg" xmlns:xlink="http://www.w3.org/1999/xlink" xml:space="preserve" xmlns:serif="http://www.serif.com/" style="fill-rule:evenodd;clip-rule:evenodd;stroke-linejoin:round;stroke-miterlimit:2;"><path d="M19.13,26.855c15.513,0 19.011,-16.776 19.13,-19.335c0.044,-0.958 -4.713,-8.088 -6.354,-7.484c-1.086,0.399 -0.663,15.267 -12.776,15.267c-12.113,0 -11.69,-14.868 -12.776,-15.267c-1.641,-0.604 -6.398,6.526 -6.354,7.484c0.119,2.559 3.617,19.335 19.13,19.335" style="fill:#240b4a;fill-rule:nonzero;"/><path d="M78.94,26.855c-15.513,0 -19.011,-16.776 -19.13,-19.335c-0.044,-0.958 4.713,-8.088 6.354,-7.484c1.086,0.399 0.663,15.267 12.776,15.267c12.113,0 11.69,-14.868 12.776,-15.267c1.641,-0.604 6.398,6.526 6.354,7.484c-0.119,2.559 -3.617,19.335 -19.13,19.335" style="fill:#240b4a;fill-rule:nonzero;"/><path d="M91.435,19.074c2.336,-0 10.012,13.882 0,13.882c-10.012,-0 -2.336,-13.882 0,-13.882" style="fill:#97e2ff;fill-rule:nonzero;"/></svg>