<?xml version="1.0" encoding="UTF-8" standalone="no"?><!DOCTYPE svg PUBLIC "-//W3C//DTD SVG 1.1//EN" "http://www.w3.org/Graphics/SVG/1.1/DTD/svg11.dtd"><svg width="100%" height="100%" viewBox="0 0 139 93" version="1.1" xmlns="http://www.w3.org/2000/svg" xmlns:xlink="http://www.w3.org/1999/xlink" xml:space="preserve" xmlns:serif="http://www.serif.com/" style="fill-rule:evenodd;clip-rule:evenodd;stroke-linejoin:round;stroke-miterlimit:2;"><path d="M117.462,53.89c-0,25.329 -31.487,39.051 -49.833,38.69c-17.407,-0.342 -48.279,-13.361 -48.279,-38.69c0,-12.023 -3.573,8.441 -19.02,-7.614c-3.841,-3.993 26.84,-28.956 38.397,-32.532c6.052,-1.873 22.655,1.396 28.298,1.396c6.441,0 22.584,-3.26 30.118,-1.732c9.725,1.973 45.07,35.124 40.615,37.241c-15.536,7.384 -20.296,-9.287 -20.296,3.241" style="fill:#50f;fill-opacity:0.26;fill-rule:nonzero;"/><g><g opacity="0.5"><path d="M54.177,23.747c1.172,1.513 -7.453,5.296 -7.853,5.471c-0.269,0.118 -0.58,0.096 -0.815,-0.033c-3.663,-2.096 -6.544,-4.865 -9.2,-7.795c-6.388,-7.046 -4.582,-22.357 -2.181,-19.354" style="fill-rule:nonzero;"/></g><g opacity="0.5"><path d="M80.055,27.208c-0.665,1.777 8.686,2.215 9.12,2.235c0.293,0.014 0.582,-0.113 0.768,-0.312c2.866,-3.168 4.787,-6.675 6.445,-10.25c3.987,-8.596 -2.305,-21.842 -3.698,-18.289" style="fill-rule:nonzero;"/></g></g></svg>