<?xml version="1.0" encoding="UTF-8" standalone="no"?><!DOCTYPE svg PUBLIC "-//W3C//DTD SVG 1.1//EN" "http://www.w3.org/Graphics/SVG/1.1/DTD/svg11.dtd"><svg width="100%" height="100%" viewBox="0 0 99 85" version="1.1" xmlns="http://www.w3.org/2000/svg" xmlns:xlink="http://www.w3.org/1999/xlink" xml:space="preserve" xmlns:serif="http://www.serif.com/" style="fill-rule:evenodd;clip-rule:evenodd;stroke-linejoin:round;stroke-miterlimit:2;"><path d="M98.256,46.089c0,25.329 -31.487,39.051 -49.832,38.69c-17.407,-0.342 -48.279,-13.361 -48.279,-38.69c-0,-12.023 -1.69,-37.539 6.482,-44.215c5.459,-4.46 3.734,4.057 12.895,7.069c6.018,1.978 22.654,-1.604 28.297,-1.604c6.441,0 22.811,2.655 30.118,0.268c8.226,-2.687 7.275,-10.271 11.944,-6.642c8.631,6.708 8.375,32.596 8.375,45.124" style="fill:#ffc899;fill-opacity:0.26;fill-rule:nonzero;"/><path d="M22.148,54.364c-5.577,-0.702 -10.847,-2.107 -16.101,-3.937c-1.737,-0.632 -3.461,-1.3 -5.159,-2.141c-0.348,-0.173 -0.489,-0.594 -0.317,-0.941c0.115,-0.234 0.345,-0.374 0.588,-0.389c3.826,-0.166 7.519,0.613 11.154,1.638c3.615,1.103 7.165,2.43 10.279,4.676c0.503,0.349 0.154,1.196 -0.444,1.094" style="fill-rule:nonzero;"/><path d="M22.031,47.227c-5.577,-0.702 -10.848,-2.108 -16.101,-3.937c-1.738,-0.632 -3.461,-1.3 -5.159,-2.142c-0.348,-0.173 -0.489,-0.594 -0.317,-0.941c0.115,-0.233 0.345,-0.374 0.587,-0.389c3.827,-0.166 7.52,0.613 11.155,1.639c3.615,1.103 7.164,2.429 10.279,4.676c0.502,0.349 0.154,1.195 -0.444,1.094" style="fill-rule:nonzero;"/><path d="M23.026,61.405c-5.576,-0.702 -10.847,-2.108 -16.1,-3.937c-1.738,-0.632 -3.462,-1.3 -5.16,-2.142c-0.347,-0.173 -0.489,-0.594 -0.317,-0.941c0.116,-0.233 0.345,-0.374 0.588,-0.389c3.827,-0.166 7.52,0.613 11.154,1.638c3.615,1.104 7.165,2.43 10.279,4.676c0.503,0.35 0.155,1.196 -0.444,1.095" style="fill-rule:nonzero;"/><path d="M77.118,54.123c5.4,-0.786 10.492,-2.272 15.561,-4.18c1.676,-0.659 3.338,-1.352 4.972,-2.22c0.335,-0.178 0.465,-0.601 0.293,-0.945c-0.115,-0.232 -0.34,-0.369 -0.576,-0.381c-3.716,-0.108 -7.287,0.728 -10.797,1.808c-3.491,1.157 -6.914,2.538 -9.901,4.831c-0.482,0.357 -0.131,1.198 0.448,1.087" style="fill-rule:nonzero;"/><path d="M77.12,46.985c5.4,-0.787 10.492,-2.272 15.561,-4.181c1.676,-0.658 3.338,-1.352 4.973,-2.219c0.334,-0.178 0.465,-0.601 0.293,-0.946c-0.116,-0.232 -0.341,-0.369 -0.577,-0.38c-3.715,-0.108 -7.286,0.727 -10.797,1.807c-3.49,1.158 -6.914,2.538 -9.9,4.831c-0.483,0.357 -0.132,1.198 0.447,1.088" style="fill-rule:nonzero;"/><path d="M76.376,61.176c5.4,-0.786 10.492,-2.272 15.56,-4.181c1.677,-0.658 3.339,-1.352 4.973,-2.219c0.335,-0.178 0.465,-0.601 0.293,-0.946c-0.116,-0.232 -0.341,-0.369 -0.576,-0.38c-3.716,-0.108 -7.287,0.727 -10.798,1.807c-3.49,1.158 -6.913,2.538 -9.9,4.831c-0.483,0.357 -0.131,1.199 0.448,1.088" style="fill-rule:nonzero;"/><path d="M49.858,28.268c0.471,-5.437 0.192,-10.733 -0.505,-16.105c-0.257,-1.782 -0.552,-3.559 -1.022,-5.348c-0.097,-0.367 -0.479,-0.591 -0.853,-0.502c-0.252,0.059 -0.437,0.247 -0.503,0.474c-0.956,3.592 -0.96,7.259 -0.713,10.924c0.327,3.663 0.887,7.311 2.435,10.744c0.237,0.551 1.136,0.402 1.161,-0.187" style="fill-rule:nonzero;"/><path d="M39.398,28.198c2.098,-5.038 3.438,-10.17 4.402,-15.499c0.296,-1.777 0.554,-3.559 0.649,-5.407c0.019,-0.379 -0.277,-0.708 -0.661,-0.737c-0.258,-0.02 -0.492,0.103 -0.623,0.299c-2,3.133 -3.117,6.627 -3.992,10.194c-0.799,3.589 -1.372,7.236 -0.938,10.976c0.059,0.597 0.961,0.728 1.163,0.174" style="fill-rule:nonzero;"/><path d="M59.354,27.383c-0.797,-5.399 -2.293,-10.488 -4.212,-15.552c-0.661,-1.675 -1.358,-3.336 -2.229,-4.969c-0.179,-0.334 -0.602,-0.463 -0.946,-0.291c-0.232,0.117 -0.369,0.342 -0.38,0.578c-0.1,3.715 0.743,7.285 1.83,10.793c1.165,3.488 2.552,6.909 4.851,9.891c0.358,0.482 1.198,0.129 1.086,-0.45" style="fill-rule:nonzero;"/></svg>