<?xml version="1.0" encoding="UTF-8" standalone="no"?><!DOCTYPE svg PUBLIC "-//W3C//DTD SVG 1.1//EN" "http://www.w3.org/Graphics/SVG/1.1/DTD/svg11.dtd"><svg width="100%" height="100%" viewBox="0 0 99 79" version="1.1" xmlns="http://www.w3.org/2000/svg" xmlns:xlink="http://www.w3.org/1999/xlink" xml:space="preserve" xmlns:serif="http://www.serif.com/" style="fill-rule:evenodd;clip-rule:evenodd;stroke-linejoin:round;stroke-miterlimit:2;"><path d="M98.112,39.796c-0,25.328 -31.488,39.05 -49.833,38.69c-17.407,-0.343 -48.279,-13.362 -48.279,-38.69c-0,-25.329 22.283,-39.517 49.377,-39.517c27.091,-0 48.735,14.188 48.735,39.517" style="fill:#ffc899;fill-opacity:0.26;fill-rule:nonzero;"/><g><g opacity="0.5"><path d="M22.004,48.071c-5.577,-0.702 -10.848,-2.108 -16.101,-3.937c-1.738,-0.632 -3.462,-1.3 -5.16,-2.142c-0.347,-0.172 -0.489,-0.594 -0.317,-0.941c0.116,-0.233 0.345,-0.374 0.588,-0.389c3.827,-0.166 7.52,0.614 11.154,1.639c3.616,1.103 7.165,2.429 10.279,4.676c0.503,0.349 0.155,1.196 -0.443,1.094" style="fill-rule:nonzero;"/></g><g opacity="0.5"><path d="M21.886,40.933c-5.577,-0.702 -10.847,-2.107 -16.101,-3.937c-1.737,-0.632 -3.461,-1.3 -5.159,-2.141c-0.348,-0.173 -0.489,-0.594 -0.317,-0.941c0.115,-0.234 0.345,-0.374 0.588,-0.39c3.826,-0.165 7.519,0.614 11.154,1.639c3.615,1.103 7.164,2.43 10.279,4.676c0.503,0.349 0.154,1.196 -0.444,1.094" style="fill-rule:nonzero;"/></g><g opacity="0.5"><path d="M22.882,55.111c-5.577,-0.702 -10.848,-2.108 -16.101,-3.937c-1.738,-0.632 -3.461,-1.3 -5.159,-2.142c-0.348,-0.172 -0.489,-0.593 -0.317,-0.94c0.115,-0.234 0.345,-0.375 0.587,-0.39c3.827,-0.166 7.52,0.614 11.155,1.639c3.615,1.103 7.164,2.43 10.279,4.676c0.502,0.349 0.154,1.196 -0.444,1.094" style="fill-rule:nonzero;"/></g></g><g><g opacity="0.5"><path d="M76.973,47.83c5.4,-0.787 10.492,-2.272 15.561,-4.181c1.676,-0.658 3.338,-1.352 4.973,-2.219c0.334,-0.178 0.465,-0.601 0.293,-0.946c-0.116,-0.232 -0.341,-0.369 -0.577,-0.38c-3.715,-0.108 -7.286,0.727 -10.797,1.807c-3.491,1.158 -6.914,2.538 -9.901,4.831c-0.482,0.357 -0.131,1.198 0.448,1.088" style="fill-rule:nonzero;"/></g><g opacity="0.5"><path d="M76.976,40.691c5.4,-0.786 10.492,-2.272 15.56,-4.18c1.677,-0.659 3.339,-1.352 4.973,-2.22c0.335,-0.178 0.465,-0.601 0.293,-0.945c-0.116,-0.232 -0.34,-0.369 -0.576,-0.381c-3.716,-0.108 -7.287,0.728 -10.798,1.808c-3.49,1.157 -6.913,2.538 -9.9,4.831c-0.483,0.357 -0.131,1.198 0.448,1.087" style="fill-rule:nonzero;"/></g><g opacity="0.5"><path d="M76.231,54.882c5.4,-0.786 10.492,-2.271 15.561,-4.18c1.676,-0.658 3.338,-1.352 4.972,-2.22c0.335,-0.178 0.466,-0.601 0.293,-0.945c-0.115,-0.232 -0.34,-0.369 -0.576,-0.38c-3.716,-0.108 -7.287,0.727 -10.797,1.807c-3.491,1.158 -6.914,2.538 -9.901,4.831c-0.482,0.357 -0.131,1.198 0.448,1.087" style="fill-rule:nonzero;"/></g></g><g><g opacity="0.5"><path d="M49.713,21.975c0.472,-5.437 0.192,-10.734 -0.505,-16.105c-0.257,-1.783 -0.552,-3.559 -1.022,-5.349c-0.096,-0.366 -0.478,-0.59 -0.853,-0.502c-0.252,0.06 -0.437,0.247 -0.502,0.474c-0.956,3.592 -0.961,7.26 -0.714,10.925c0.328,3.662 0.887,7.311 2.435,10.743c0.237,0.552 1.136,0.402 1.161,-0.186" style="fill-rule:nonzero;"/></g><g opacity="0.5"><path d="M39.253,21.905c2.098,-5.038 3.438,-10.17 4.403,-15.5c0.296,-1.776 0.553,-3.559 0.648,-5.407c0.019,-0.378 -0.277,-0.707 -0.661,-0.736c-0.258,-0.02 -0.491,0.102 -0.622,0.299c-2,3.133 -3.117,6.626 -3.993,10.193c-0.799,3.59 -1.372,7.236 -0.937,10.977c0.058,0.597 0.96,0.727 1.162,0.174" style="fill-rule:nonzero;"/></g><g opacity="0.5"><path d="M59.21,21.089c-0.797,-5.398 -2.293,-10.487 -4.212,-15.552c-0.662,-1.675 -1.359,-3.335 -2.23,-4.968c-0.178,-0.334 -0.602,-0.464 -0.946,-0.291c-0.232,0.116 -0.368,0.341 -0.379,0.577c-0.101,3.716 0.742,7.285 1.829,10.794c1.165,3.488 2.552,6.908 4.851,9.89c0.358,0.482 1.199,0.129 1.087,-0.45" style="fill-rule:nonzero;"/></g></g></svg>