<?xml version="1.0" encoding="UTF-8" standalone="no"?><!DOCTYPE svg PUBLIC "-//W3C//DTD SVG 1.1//EN" "http://www.w3.org/Graphics/SVG/1.1/DTD/svg11.dtd"><svg width="100%" height="100%" viewBox="0 0 36 35" version="1.1" xmlns="http://www.w3.org/2000/svg" xmlns:xlink="http://www.w3.org/1999/xlink" xml:space="preserve" xmlns:serif="http://www.serif.com/" style="fill-rule:evenodd;clip-rule:evenodd;stroke-linejoin:round;stroke-miterlimit:2;"><path d="M17.938,0c-14.56,0 -19.453,16.35 -17.543,18.259c1.909,1.91 10.144,3.938 17.543,3.938c7.399,0 15.634,-2.028 17.543,-3.938c1.91,-1.909 -2.983,-18.259 -17.543,-18.259" style="fill:#ff7271;fill-rule:nonzero;"/><g opacity="0.3"><path d="M17.938,0c-14.56,0 -19.453,16.35 -17.543,18.259c1.909,1.91 10.144,3.938 17.543,3.938c7.399,0 15.634,-2.028 17.543,-3.938c1.91,-1.909 -2.983,-18.259 -17.543,-18.259" style="fill-rule:nonzero;"/></g><path d="M17.938,34.596c12.085,-0 9.674,-16.35 8.724,-18.259c-0.949,-1.91 -5.044,-3.939 -8.724,-3.939c-3.68,-0 -7.775,2.029 -8.724,3.939c-0.95,1.909 -3.361,18.259 8.724,18.259" style="fill:#ff7271;fill-rule:nonzero;"/></svg>