<?xml version="1.0" encoding="UTF-8" standalone="no"?><!DOCTYPE svg PUBLIC "-//W3C//DTD SVG 1.1//EN" "http://www.w3.org/Graphics/SVG/1.1/DTD/svg11.dtd"><svg width="100%" height="100%" viewBox="0 0 47 12" version="1.1" xmlns="http://www.w3.org/2000/svg" xmlns:xlink="http://www.w3.org/1999/xlink" xml:space="preserve" xmlns:serif="http://www.serif.com/" style="fill-rule:evenodd;clip-rule:evenodd;stroke-linejoin:round;stroke-miterlimit:2;"><path d="M0.195,10.296c11.824,-14.161 33.623,-13.228 45.92,-0.189c0.806,0.831 -0.195,2.208 -1.229,1.69c-14.992,-7.602 -28.538,-8.831 -43.437,-0.189c-0.832,0.588 -1.892,-0.506 -1.254,-1.312" style="fill:#240b4a;fill-rule:nonzero;"/><path d="M17.107,10.59c4.272,-3.138 10.646,-3.093 14.955,-0.067c0.396,0.263 0.143,0.924 -0.322,0.862c-1.273,-0.121 -2.456,-0.344 -3.649,-0.441c-3.585,-0.377 -6.992,-0.163 -10.629,0.371c-0.416,0.109 -0.699,-0.47 -0.355,-0.725" style="fill:#240b4a;fill-rule:nonzero;"/></svg>