<?xml version="1.0" encoding="UTF-8" standalone="no"?><!DOCTYPE svg PUBLIC "-//W3C//DTD SVG 1.1//EN" "http://www.w3.org/Graphics/SVG/1.1/DTD/svg11.dtd"><svg width="100%" height="100%" viewBox="0 0 17 34" version="1.1" xmlns="http://www.w3.org/2000/svg" xmlns:xlink="http://www.w3.org/1999/xlink" xml:space="preserve" xmlns:serif="http://www.serif.com/" style="fill-rule:evenodd;clip-rule:evenodd;stroke-linejoin:round;stroke-miterlimit:2;"><path d="M4.538,15.171c13.639,-3.677 17.215,16.879 3.424,17.979c-3.306,0.15 -7.391,-1.59 -7.955,-5.206c-0.065,-0.523 0.307,-1 0.83,-1.065c0.402,-0.052 0.758,0.156 0.956,0.478c1.819,2.506 6.154,2.163 8.331,0.341c1.483,-1.197 1.681,-3.234 1.411,-4.996c-0.299,-2.121 -1.463,-3.461 -3.403,-4.521c-1.052,-0.581 -2.353,-1.023 -3.605,-1.414c-0.775,-0.213 -0.753,-1.397 0.011,-1.596" style="fill:#240b4a;fill-rule:nonzero;"/><path d="M0.713,6.487c0.613,-3.252 3.492,-5.556 6.663,-6.289c6.271,-1.382 9.714,4.719 8.953,10.249c-0.536,5.577 -7.069,7.914 -11.792,6.38c-0.823,-0.208 -0.806,-1.461 0.005,-1.658c1.266,-0.352 2.58,-0.74 3.695,-1.231c1.954,-0.9 3.392,-1.952 3.612,-4.062c0.146,-1.773 -0.086,-4.27 -1.449,-5.409c-2.539,-1.785 -6.743,-0.024 -8.323,2.526c-0.393,0.69 -1.515,0.258 -1.364,-0.506" style="fill:#240b4a;fill-rule:nonzero;"/></svg>