<?xml version="1.0" encoding="UTF-8" standalone="no"?><!DOCTYPE svg PUBLIC "-//W3C//DTD SVG 1.1//EN" "http://www.w3.org/Graphics/SVG/1.1/DTD/svg11.dtd"><svg width="100%" height="100%" viewBox="0 0 17 19" version="1.1" xmlns="http://www.w3.org/2000/svg" xmlns:xlink="http://www.w3.org/1999/xlink" xml:space="preserve" xmlns:serif="http://www.serif.com/" style="fill-rule:evenodd;clip-rule:evenodd;stroke-linejoin:round;stroke-miterlimit:2;"><path d="M7.191,0.003c-1.448,0.064 -7.876,8.068 -7.131,11.182c0.744,3.113 5.663,8.271 8.078,7.68c2.415,-0.591 7.941,-6.404 8.409,-8.845c0.469,-2.442 -5.488,-10.188 -9.356,-10.017" style="fill:#ff7271;fill-rule:nonzero;"/><g opacity="0.3"><path d="M0.163,11.518c2.268,-1.883 5.152,-3.032 8.238,-3.032c2.868,-0 5.546,0.993 7.727,2.63c0.212,-0.409 0.359,-0.781 0.419,-1.096c0.469,-2.442 -5.487,-10.189 -9.356,-10.017c-1.447,0.064 -7.876,8.068 -7.131,11.181c0.026,0.107 0.068,0.222 0.103,0.334" style="fill-rule:nonzero;"/></g></svg>